<?xml version="1.0" encoding="utf-8"?>
<!-- Generator: Adobe Illustrator 18.0.0, SVG Export Plug-In . SVG Version: 6.00 Build 0)  -->
<!DOCTYPE svg PUBLIC "-//W3C//DTD SVG 1.1//EN" "http://www.w3.org/Graphics/SVG/1.1/DTD/svg11.dtd">
<svg version="1.1" id="Capa_1" xmlns="http://www.w3.org/2000/svg" xmlns:xlink="http://www.w3.org/1999/xlink" x="0px" y="0px"
	 viewBox="0 0 960 476" enable-background="new 0 0 960 476" xml:space="preserve">
<g>
	<path fill="#CFDB00" d="M512.6,143.5c-2.5-5-6-9.1-10.3-12.7c-4.4-3.7-8.8-6.5-13.7-8.8l-55.9-27.6L291.6,25.2
		c-4.7-2.4-9.7-4.1-15.2-5.3c-2.9-0.7-6-0.9-9-0.7c-2.9-0.1-6,0.1-9,0.7c-5.3,1.2-10.3,2.9-15.2,5.3L102.2,94.4l-55.9,27.6
		c-4.7,2.4-9.3,5.3-13.7,8.8c-4.4,3.5-7.8,7.8-10.3,12.7c-2.5,5-3.8,10.5-4,16.5c-0.1,6,1.5,12.7,4.7,19.8l0.1,0.3l0.9,1.9l1.8-1.3
		l0.6-0.3c1.6-1,5.9-3.7,13.1-7.7c7.2-4,17.4-9.4,31-16.1l183.7-90.1c4.9-2.5,9.1-4.4,13.4-6.5c4.1,1.9,8.4,4,13.4,6.5l183.7,90.1
		c13.4,6.6,23.9,11.9,31,16.1c7.2,4,11.5,6.5,13.1,7.7l0.6,0.3l1.8,1.3l0.9-1.9l0.1-0.3c3.2-7.1,4.9-13.7,4.7-19.8
		C516.6,153.8,515.2,148.3,512.6,143.5z"/>
	<path fill="#CFDB00" d="M63.9,369.1h-2.1c-7.8,0-14.3-1.3-19.5-4.1s-9.4-6.3-12.5-10.9c-3.2-4.7-5.5-9.9-6.6-15.2
		c-1.3-5.5-1.9-10.9-1.9-16.4V286v-36.3c0-5.5,0.7-10.9,1.9-16.5c1.3-5.6,3.5-10.6,6.6-15.2c3.2-4.4,7.4-8.1,12.5-10.9
		S54,203,61.8,203h2.1c-0.4,4.3-0.7,9-1,14c-0.1,5-0.4,10.2-0.4,15.2c-0.1,5-0.1,9.7-0.1,14c0,4.4,0,8,0,10.9v57.6
		c0,2.8,0,6.5,0,10.9s0.1,9.1,0.1,14.3c0.1,5,0.3,10.2,0.4,15.3C63,360.2,63.3,364.9,63.9,369.1z"/>
	<path fill="#00A8E1" d="M350.9,325.5c0,4.4,0.1,9.1,0.4,14.3c0.1,5,0.4,10.2,0.7,15.3c0.1,5,0.6,9.7,1,14H351
		c-7.8,0-14.3-1.3-19.5-4.1c-5.2-2.8-9.3-6.3-12.5-10.9c-3.2-4.7-5.5-9.9-6.6-15.2c-1.3-5.5-1.8-10.9-1.8-16.4v-34.2
		c0-10-0.7-18.1-2.4-24.8c-1.6-6.5-3.5-11.8-5.7-15.8c-2.5-4-5.2-6.9-8-8.8c-2.7-1.9-5.5-3.4-8-4.3c-3.4-1-6.6-1.5-9.3-1.5
		c-3.2,0-6.8,0.7-10.9,1.9c-4.1,1.3-7.8,4-11.2,8c-3.7,4-6.6,9.6-9.1,16.7c-2.4,7.1-3.5,16.7-3.5,28.5v26.2c0,2.8,0,6.5,0,10.9
		s0,9.1,0.1,14.3c0.1,5,0.3,10.2,0.4,15.3c0.1,5,0.6,9.7,1,14h-2.1c-7.8,0-14.3-1.3-19.5-4.1c-5.2-2.8-9.4-6.3-12.5-10.9
		c-3.2-4.7-5.5-9.9-6.6-15.2c-1.3-5.5-1.9-10.9-1.9-16.4v-34.2c0-10-0.7-18.1-2.2-24.8c-1.5-6.5-3.5-11.8-6-15.8
		c-2.5-4-5.2-6.9-8-8.8c-2.7-1.9-5.5-3.4-8-4.3c-1.8-0.4-3.5-0.7-5.2-1c-1.6-0.3-2.9-0.4-4.1-0.4c-3.2,0-6.9,0.7-10.9,1.9
		c-4,1.3-7.8,4-11.2,8c-3.7,4-6.6,9.6-9.1,16.7c-2.4,7.1-3.5,16.7-3.5,28.5v80.8h-18.1c-2.5,0-5.2-0.4-7.8-1
		c-2.7-0.6-5.2-2.1-7.4-4.1c-2.4-2.1-4.1-4.7-5.7-8c-1.5-3.4-2.2-7.7-2.2-12.8v-79.6c0-2.8,0-6.5,0-11.1c0-4.4-0.1-9.4-0.4-14.6
		c-0.1-5.2-0.4-10.6-0.7-16.1c-0.1-5.5-0.6-10.3-1-14.6h4.1h0.4c6,0,11.4,0.9,15.9,2.7c4.7,1.8,8.8,4.1,12.2,7.4l0.4,0.4
		c0.1,0.1,0.4,0.4,0.4,0.4c0,0.1,0.1,0.3,0.7,0.4c6-5,12.7-8.8,20.2-11.5s15.3-4.1,23.6-4.1c11.8,0,22.1,2.2,31.3,6.5
		c9.1,4.3,17,10.2,23.4,17.8c6.3-7.7,14.2-13.4,23.3-17.8c9-4.3,19.5-6.5,31.1-6.5c11.8,0,22.1,2.2,31.3,6.5
		c9.1,4.3,17,10.2,23.4,17.8c6.3,7.7,11.2,16.7,14.4,27c3.2,10.5,4.9,21.8,4.9,34.1v26.2C350.9,317.6,350.9,321.2,350.9,325.5z"/>
	<path fill="#00A8E1" d="M372.5,288.5c0-13.3,1.9-25.2,5.7-35.7c3.8-10.6,9.3-19.5,16.2-26.8c6.6-7.4,14.6-13,23.9-17
		c9.3-3.8,19.2-5.9,29.8-5.9c11.8,0,22.1,2.2,31.3,6.8c9.1,4.4,16.8,10.6,23,18.4c6.2,7.7,10.9,16.5,14.2,26.8s4.9,21.4,4.9,33.2
		c0,11.8-1.8,22.8-5.3,33.2c-3.5,10.2-8.5,19.2-15.3,27c-6.6,7.7-14.4,13.7-23.3,18.1c-8.8,4.4-18.7,6.8-29.5,6.8
		c-6.6,0-12.8-0.7-18.6-1.9c-5.7-1.3-11.5-3.7-17.2-6.9v4.6v28.5c0,2.8,0.1,6.5,0.1,11.2c0.1,4.6,0.4,9.6,0.7,14.7
		c0.3,5.2,0.7,10.5,1,15.8c0.3,5.3,0.7,10.2,1.2,14.4h-2.4c-7.5,0-14-1.3-19.3-4.1c-5.2-2.8-9.4-6.3-12.7-10.9
		c-3.2-4.4-5.5-9.6-6.6-15.2c-1.3-5.6-1.9-11.1-1.9-16.5L372.5,288.5L372.5,288.5z M411.8,293.4c0,5.6,0.4,10.8,1.2,15.2
		c0.7,4.4,1.9,8.3,3.2,11.5c2.7,6.8,6.2,11.8,10.3,14.9c3.8,3.4,8,5.5,11.9,6.5c4.1,1,7.4,1.6,9.6,1.6c3.2,0,6.8-0.6,10.6-1.8
		c3.8-1.2,7.7-3.7,11.4-7.4c3.4-3.8,6.5-9.3,9.3-16.5c2.7-7.2,4.4-17,4.9-29v-5.3c0-5.6-0.4-10.8-1.2-15.2
		c-0.7-4.4-1.9-8.3-3.2-11.5c-2.7-6.6-6.2-11.6-10.3-14.9c-3.8-3.4-7.8-5.5-11.9-6.5c-4.1-1-7.2-1.6-9.4-1.6
		c-3.2,0-6.8,0.6-10.9,1.8c-4,1.2-7.8,3.8-11.5,7.8c-3.5,3.8-6.5,9.3-9.3,16.4c-2.7,7.1-4.4,16.7-4.9,28.7v5.3L411.8,293.4
		L411.8,293.4z"/>
	<path fill="#CFDB00" d="M558.7,351.8c-6-7.1-10.8-15.9-14.3-26.2c-3.5-10.5-5.3-22.7-5.3-37l-0.4-72.1c-0.1-11.6-0.4-21.5-0.4-29.6
		c-0.1-8.3-0.1-14.9-0.4-19.9c-0.1-5-0.1-9-0.3-11.6c-0.1-2.8-0.1-4.4-0.1-5.2v-0.7l-0.3-2.2h2.1c7.8,0,14.4,1.3,19.8,4.1
		c5.5,2.8,9.7,6.3,12.8,10.9c3.2,4.4,5.5,9.6,7.1,15.2c1.5,5.6,2.2,11.1,2.2,16.5v9.6h1.8c8.3,0,14.9-0.1,20.2-0.4
		c5.2-0.1,9.3-0.4,12.4-0.4s5.9-0.4,8.4-0.9l2.4-0.7v2.5c0,8.1-1.3,14.3-4.1,18.9c-2.4,4.7-5.7,8.3-10.3,10.6
		c-3.8,2.4-8.3,3.8-13.1,4.4s-9.7,1-14.4,1.3H581v49.8c0,10,0.9,18.4,2.7,25.1c1.8,6.8,4.1,12.2,7.1,16.5
		c5.5,8.1,13.6,12.1,24.2,12.1c5,0,10.6-1,16.8-2.8l2.1-0.7l0.3,2.2c0.1,1.2,0.4,2.9,0.4,5.3c0,8.5-3.2,15.3-10,20.3
		c-6.3,4.7-14.3,7.1-23.4,7.1c-7.5,0-15-1.8-22.4-5.3C571.3,364.1,564.6,358.8,558.7,351.8z"/>
	<path fill="#00A8E1" d="M756.8,296.9c-6.2,4.3-13.1,7.4-21.1,9.4c-7.8,2.1-15.9,3.1-24.5,3.1c-6,0-11.8-0.4-17.5-1.3
		c-5.7-1-11.2-2.2-16.5-3.8c0.4,3.4,1,6.5,1.8,9.7s1.6,6.3,2.7,9.4c2.9,7.4,7.5,12.7,13.4,16.1c4.6,2.7,10,3.8,16.5,3.8
		c0.7,0,1.3-0.1,1.8-0.1c0.6-0.1,1.2-0.1,1.9-0.1c3.2-0.3,6.3-0.7,9.6-1.6s6.3-1.9,9.6-3.1c3.2-1.2,6.3-2.2,9.6-3.1
		c3.2-0.7,6.3-1.3,9.3-1.3c3.7,0,6.8,0.9,9.3,2.5c2.7,1.5,5.2,4.1,7.2,8.3l0.7,1l-0.7,1c-6.9,7.7-14.9,13.7-24.2,18.4
		c-9.3,4.7-19.5,7.5-30.4,8.3h-5.7c-21.4,0-38.6-7.4-51.6-22.1c-13.1-14.7-19.9-33.9-20.3-57.9v-2.5c0-12.2,1.6-23.6,4.7-33.8
		c3.1-10.2,7.7-19,13.6-26.7c5.9-7.7,13.1-13.7,21.5-18.4c8.4-4.7,17.7-7.7,28.2-8.8c1.3-0.1,2.7-0.4,4.1-0.4c1.3,0,2.9,0,4.4,0
		c4.9,0,9.9,0.4,15.2,1.5c5.2,1,10.5,2.5,15.5,4.6c5.2,2.2,10,5,14.4,8.5c4.4,3.5,8.1,8,11.1,13.1c4.4,7.4,6.6,15.9,6.9,25.6v1.8
		c0,9.3-1.8,17-5.5,23.1C768.2,287.6,763.2,292.9,756.8,296.9z M685.6,279.8c2.9,0.4,6.3,1,10.2,1.5c3.8,0.4,7.7,0.7,11.5,0.7
		c6.3,0,12.2-0.7,17.5-2.2c5.7-1.9,10-4.9,13.1-8.8c2.5-3.4,3.8-7.1,4.1-11.1c0.1-0.7,0.3-1.8,0.3-3.2c0-2.4-0.3-4.9-1-7.5
		c-0.7-2.7-2.1-5.2-4.1-7.8c-1.8-2.4-4.6-4.3-8.1-5.9c-3.5-1.6-8.4-2.5-14.3-2.7c-0.7,0-1.3,0.1-2.1,0.1c-0.7,0.1-1.3,0.1-2.1,0.1
		c-6.3,0.1-11.9,2.2-16.8,5.6c-4.4,3.4-7.7,7.2-10,11.6c-2.5,4.4-4.3,9.1-5.2,14c-1,4.9-1.3,9.3-1.3,13.4h1c0.9,0.4,1.9,0.7,3.1,0.9
		C682.7,279.1,684,279.4,685.6,279.8z"/>
	<path fill="#00A8E1" d="M941.7,358.8l-1.3,1.3c-6.6,5.9-13.7,8.8-21.4,8.8c-3.2,0-6.3-0.6-9.6-1.6c-3.2-1-6.3-2.5-9.3-4.4
		c-2.9-1.9-5.7-4-8.3-6.5c-2.5-2.4-5-4.9-7.5-7.4c-8.8-10.5-17-19.8-24.2-28.2c-2.9-3.5-5.9-7.1-8.7-10.5c-2.9-3.4-5.5-6.5-7.8-9.3
		s-4.1-5-5.7-6.8c-1.5-1.8-2.4-2.8-2.7-3.1v23.1c0,2.8,0,6.5,0,10.9s0.1,9.1,0.1,14.3c0.1,5,0.3,10.2,0.7,15.3c0.4,5,0.7,9.7,1.2,14
		H835c-7.5,0-14-1.3-19.3-4.1s-9.4-6.3-12.7-10.9c-3.2-4.7-5.5-9.9-6.6-15.2c-1.3-5.5-1.9-10.9-1.9-16.4v-153
		c0-5.5,0.6-10.9,1.9-16.4c1.3-5.5,3.5-10.6,6.6-15.3c3.2-4.4,7.5-8.1,12.7-10.9c5.2-2.8,11.8-4.1,19.3-4.1h2.4
		c-0.4,4.3-0.9,9-1.2,14c-0.3,5-0.6,10.2-0.7,15.3c-0.1,5-0.1,9.9-0.1,14.3s0,8,0,10.9v80.3l12.4-12.1c3.2-2.8,5.7-5,7.4-6.5
		c1.8-1.6,3.2-3.1,4.9-4.4c1.5-1.5,3.2-3.1,5.3-5c2.1-1.9,5-4.6,9-8.3c4.6-4.4,9.7-8.3,15.5-11.4c5.7-3.1,11.6-4.6,17.5-4.6
		c4.1,0,8.3,1,12.2,2.8c4.1,1.9,7.8,4.9,11.5,8.8l1,1.3L873.5,276L941.7,358.8z"/>
	<g>
		<path fill="#908F88" d="M26,392.6h5v36.3h-5C26,429,26,392.6,26,392.6z"/>
		<path fill="#908F88" d="M44.4,400.1L44.4,400.1L44.3,429h-5v-36.3H45l21.5,28.7h0.1v-28.9h5v36.3h-5.7L44.4,400.1z"/>
		<path fill="#908F88" d="M84.6,400.1L84.6,400.1L84.5,429h-5v-36.3h5.7l21.7,28.7h0.1v-28.9h5v36.3h-5.7L84.6,400.1z"/>
		<path fill="#908F88" d="M136.5,391.7c13.4,0,18.6,9.7,18.6,19.2s-5.2,19.2-18.6,19.2s-18.6-9.7-18.6-19.2S123.1,391.7,136.5,391.7
			z M136.5,396.3c-7.7,0-13.7,4.7-13.7,14.4c0,9.7,6,14.4,13.7,14.4s13.7-4.7,13.7-14.4C150.2,401,144.2,396.3,136.5,396.3z"/>
		<path fill="#908F88" d="M186.4,392.6h5.3l-14.6,36.3h-5.3l-14.9-36.3h5.6l11.9,30.8L186.4,392.6z"/>
		<path fill="#908F88" d="M215.7,418.4h-16.4l-4.3,10.6h-5.3l15.2-36.3h5.7l15.2,36.3h-5.6L215.7,418.4z M207.4,397.6l-6.3,16.1
			h12.7L207.4,397.6z"/>
		<path fill="#908F88" d="M257,405.7c-0.7-5-4.4-9.3-11.5-9.3c-8,0-12.8,5-12.8,14.9c0,6.8,3.4,14,12.7,14c5.7,0,10.3-3.1,11.8-10.2
			h5c-0.7,8-7.2,14.9-16.8,14.9c-8.4,0-17.5-5-17.5-19.2c0-10.6,6-18.9,17.5-18.9c6.6,0,15.9,3.1,16.8,14H257V405.7z"/>
		<path fill="#908F88" d="M268.6,392.6h5v36.3h-5V392.6z"/>
		<path fill="#908F88" d="M298.4,391.7c13.4,0,18.6,9.7,18.6,19.2s-5.2,19.2-18.6,19.2c-13.4,0-18.6-9.7-18.6-19.2
			C279.8,401.4,285,391.7,298.4,391.7z M298.4,396.3c-7.7,0-13.7,4.7-13.7,14.4c0,9.7,6,14.4,13.7,14.4c7.7,0,13.7-4.7,13.7-14.4
			C312.1,401,306.1,396.3,298.4,396.3z M299.7,383h5.7l-6,7.1h-3.8L299.7,383z"/>
		<path fill="#908F88" d="M328,400.1L328,400.1l-0.1,28.9h-5v-36.3h5.7l21.5,28.9h0.1v-28.9h5V429h-5.7L328,400.1z"/>
		<path fill="#908F88" d="M427.7,392.6h18.6c7.2,0,10.3,3.4,10.3,9.1c0,4.4-2.1,6.6-4.9,7.7v0.1c3.8,1,6.3,3.7,6.3,9
			c0,5.2-3.2,10.5-10.6,10.5h-19.8V392.6L427.7,392.6z M446.1,407.6c3.7,0,5.5-2.2,5.5-5c0-3.4-1.6-5.3-5.7-5.3h-13.3v10.3H446.1z
			 M446,424.3c5.5,0,6.9-3.1,6.9-6.2c0-2.8-1.5-5.7-6.6-5.7h-13.9v11.9H446L446,424.3z"/>
		<path fill="#908F88" d="M465,392.6h5v36.3h-5V392.6z"/>
		<path fill="#908F88" d="M477.9,392.6h27v4.7h-21.8v10.6h21.4v4.7h-21.4v11.6h22.4v4.7h-27.4v-36.4H477.9z"/>
		<path fill="#908F88" d="M516.7,400.1L516.7,400.1l-0.1,28.9h-5v-36.3h5.7l21.5,28.9h0.1v-28.9h5V429h-5.7L516.7,400.1z"/>
		<path fill="#908F88" d="M551.8,392.6h27v4.7h-22v10.6h21.4v4.7h-21.4v11.6h22.4v4.7h-27.4V392.6z"/>
		<path fill="#908F88" d="M587.3,416.9c0.1,6.5,5.7,8.3,10.8,8.3c5.3,0,9-2.2,9-6.2c0-3.4-2.4-4.7-6.2-5.3l-7.5-1.3
			c-4-0.7-10-2.5-10-9.4c0-6.6,4.9-11.1,13.4-11.1c6.6,0,13.7,2.7,14.3,11.4h-5c-0.4-2.8-1.9-6.8-10-6.8c-3.7,0-7.8,1.6-7.8,5.9
			c0,2.2,1.3,4,5.5,4.7l8.3,1.6c2.7,0.4,10,1.9,10,9.3c0,9.3-7.7,11.9-14.4,11.9c-7.5,0-15.3-2.8-15.3-12.8L587.3,416.9L587.3,416.9
			z"/>
		<path fill="#908F88" d="M625.9,397.3h-12.7v-4.7h30.2v4.7h-12.7V429h-5L625.9,397.3L625.9,397.3z"/>
		<path fill="#908F88" d="M668.3,418.4h-16.4l-4.3,10.6h-5.3l15.2-36.3h5.7l15.2,36.3h-5.7L668.3,418.4z M660,397.6l-6.3,16.1h12.7
			L660,397.6z"/>
		<path fill="#908F88" d="M682.1,392.6h20.8c6.6,0,9.1,5,9.1,9.7c0,4.4-1.9,7.7-5.6,9v0.1c2.9,0.4,4.7,3.4,4.9,7.7
			c0.3,6.8,0.4,8.5,1.6,9.9h-5.2c-0.7-1-0.7-2.5-1-6.9c-0.3-6.5-2.4-8.5-6.5-8.5h-13V429h-5.2V392.6L682.1,392.6z M701,408.8
			c4.9,0,6-3.2,6-5.7c0-3.5-1.9-5.7-5.9-5.7h-14v11.5H701z"/>
	</g>
</g>
</svg>
