<?xml version="1.0" encoding="utf-8"?>
<!-- Generator: Adobe Illustrator 18.0.0, SVG Export Plug-In . SVG Version: 6.00 Build 0)  -->
<!DOCTYPE svg PUBLIC "-//W3C//DTD SVG 1.1//EN" "http://www.w3.org/Graphics/SVG/1.1/DTD/svg11.dtd">
<svg version="1.1" id="Capa_1" xmlns="http://www.w3.org/2000/svg" xmlns:xlink="http://www.w3.org/1999/xlink" x="0px" y="0px"
	 viewBox="0 0 960 500" enable-background="new 0 0 960 500" xml:space="preserve">
<g>
	<path fill="#CFDB00" d="M513.1,152.9c-2.6-5.1-6.2-9.4-10.6-13c-4.5-3.7-9.2-6.7-14.1-9.1l-57.7-28.2L285,31.8
		c-4.9-2.4-10.1-4.2-15.6-5.4c-3.1-0.7-6.2-0.9-9.3-0.8c-3.1-0.1-6.2,0.2-9.3,0.8c-5.5,1.2-10.7,3-15.6,5.4L89.5,102.6l-57.7,28.2
		c-4.9,2.4-9.6,5.4-14.1,9.1c-4.5,3.6-8,8-10.6,13c-2.6,5.1-4,10.7-4.1,16.9s1.5,13,4.9,20.2l0.1,0.3l0.9,2l1.8-1.3l0.6-0.3
		c1.6-1.1,6.1-3.7,13.5-7.8s18-9.6,31.9-16.4l189.6-92.2c5-2.5,9.5-4.6,13.8-6.6c4.2,2,8.7,4.1,13.8,6.6l189.6,92.2
		c13.9,6.8,24.6,12.3,31.9,16.4c7.4,4.1,11.9,6.7,13.5,7.8l0.6,0.3l1.8,1.3l0.9-2l0.2-0.3c3.4-7.2,5-14,4.9-20.2
		C517.1,163.6,515.8,158,513.1,152.9z"/>
	<path fill="#CFDB00" d="M49.7,384.1h-2.1c-8.1,0-14.7-1.4-20.1-4.2c-5.3-2.8-9.7-6.5-13-11.1c-3.3-4.8-5.6-10.1-6.9-15.6
		c-1.3-5.6-2-11.2-2-16.7V299v-37.1c0-5.6,0.7-11.2,2-16.9s3.6-10.9,6.9-15.5s7.6-8.3,13-11.1c5.3-2.8,12-4.2,20.1-4.2h2.1
		c-0.5,4.4-0.8,9.2-1.1,14.4c-0.2,5.2-0.4,10.4-0.5,15.5s-0.2,9.9-0.2,14.4c0,4.5,0,8.2,0,11.1v59c0,2.9,0,6.6,0,11.1
		s0.1,9.3,0.2,14.6c0.1,5.2,0.3,10.4,0.5,15.7C48.9,374.9,49.2,379.7,49.7,384.1z"/>
	<path fill="#FFFFFF" d="M346,339.5c0,4.5,0.1,9.3,0.4,14.6c0.2,5.2,0.5,10.4,0.7,15.7c0.2,5.2,0.6,10,1.1,14.4H346
		c-8.1,0-14.7-1.4-20.1-4.2c-5.3-2.8-9.6-6.5-13-11.1c-3.3-4.8-5.6-10.1-6.9-15.6c-1.3-5.6-1.9-11.2-1.9-16.7v-35
		c0-10.2-0.8-18.6-2.5-25.3c-1.7-6.7-3.7-12.1-6-16.2c-2.6-4.1-5.3-7.1-8.2-9.1c-2.8-1.9-5.6-3.4-8.2-4.4c-3.5-1-6.8-1.5-9.6-1.5
		c-3.3,0-7,0.7-11.2,2c-4.2,1.3-8,4.1-11.5,8.2c-3.8,4.1-6.9,9.8-9.4,17.1s-3.7,17-3.7,29.1v26.9c0,2.9,0,6.6,0,11.1s0,9.3,0.2,14.6
		c0.1,5.2,0.3,10.4,0.5,15.7c0.2,5.2,0.6,10,1.1,14.4h-2.1c-8.1,0-14.7-1.4-20.1-4.2c-5.3-2.8-9.7-6.5-13-11.1
		c-3.3-4.8-5.6-10.1-6.9-15.6c-1.3-5.6-2-11.2-2-16.7v-35c0-10.2-0.8-18.6-2.3-25.3c-1.5-6.7-3.6-12.1-6.2-16.2
		c-2.6-4.1-5.3-7.1-8.2-9.1c-2.8-1.9-5.6-3.4-8.2-4.4c-1.9-0.5-3.7-0.8-5.3-1.1c-1.7-0.3-3.1-0.4-4.3-0.4c-3.3,0-7.1,0.7-11.2,2
		c-4.1,1.3-8,4.1-11.5,8.2c-3.8,4.1-6.9,9.8-9.4,17.1s-3.7,17-3.7,29.1v82.7h-18.5c-2.6,0-5.3-0.4-8-1.1s-5.3-2.1-7.6-4.2
		c-2.4-2.1-4.3-4.8-5.9-8.2c-1.5-3.4-2.3-7.8-2.3-13.1V276c0-2.9,0-6.7,0-11.3c0-4.6-0.1-9.6-0.4-14.9c-0.2-5.3-0.5-10.8-0.7-16.4
		c-0.2-5.6-0.6-10.6-1.1-14.9H81h0.4c6.2,0,11.7,0.9,16.5,2.7c4.9,1.8,9.1,4.3,12.6,7.5l0.4,0.4c0.2,0.2,0.4,0.4,0.4,0.5
		s0.2,0.3,0.7,0.5c6.2-5.1,13.1-9,20.8-11.8s15.8-4.2,24.3-4.2c12.1,0,22.8,2.2,32.3,6.6c9.5,4.4,17.5,10.4,24.2,18.2
		c6.6-7.8,14.6-13.8,24-18.2c9.3-4.4,20.1-6.6,32.1-6.6c12.1,0,22.9,2.2,32.3,6.6c9.5,4.4,17.5,10.4,24.2,18.2
		c6.6,7.8,11.6,17,14.9,27.7s5,22.3,5,34.9v26.9C346,331.3,346,335,346,339.5z"/>
	<path fill="#FFFFFF" d="M368.4,301.5c0-13.6,2-25.8,6-36.6c4-10.8,9.6-20,16.7-27.5c6.9-7.5,15.1-13.3,24.7-17.3s19.8-6,30.7-6
		c12.1,0,22.9,2.3,32.3,6.9c9.5,4.6,17.4,10.9,23.8,18.9c6.4,7.8,11.2,16.9,14.6,27.5c3.3,10.6,5,21.9,5,34s-1.8,23.4-5.5,33.9
		c-3.7,10.4-8.9,19.7-15.8,27.7c-6.9,7.8-14.9,14-24,18.6s-19.3,6.9-30.4,6.9c-6.9,0-13.3-0.7-19.2-2c-5.9-1.4-11.8-3.7-17.8-7.1
		v4.7v29.1c0,2.9,0.1,6.7,0.2,11.5c0.1,4.7,0.4,9.8,0.7,15.1c0.3,5.3,0.7,10.7,1.1,16.2s0.8,10.4,1.2,14.8h-2.5
		c-7.8,0-14.5-1.4-19.9-4.2c-5.4-2.8-9.8-6.5-13.1-11.1c-3.3-4.6-5.6-9.8-6.9-15.5s-2-11.3-2-16.9L368.4,301.5L368.4,301.5z
		 M408.9,306.5c0,5.8,0.4,11,1.2,15.5c0.8,4.5,2,8.4,3.4,11.8c2.8,7,6.4,12.1,10.7,15.3c4,3.4,8.2,5.6,12.4,6.7
		c4.3,1.1,7.6,1.6,9.9,1.6c3.3,0,7-0.6,11-1.8c4-1.2,7.9-3.8,11.7-7.6c3.5-3.9,6.7-9.5,9.6-16.9c2.8-7.4,4.5-17.3,5-29.7V296
		c0-5.8-0.4-11-1.2-15.5c-0.8-4.5-2-8.4-3.4-11.8c-2.8-6.8-6.4-11.9-10.7-15.3c-4-3.4-8.1-5.6-12.3-6.7c-4.2-1.1-7.4-1.6-9.8-1.6
		c-3.3,0-7,0.6-11.2,1.8c-4.1,1.2-8.1,3.9-11.9,8c-3.6,3.9-6.7,9.5-9.6,16.7c-2.8,7.3-4.5,17.1-5,29.5v5.4H408.9z"/>
	<path fill="#CFDB00" d="M560.6,366.3c-6.2-7.3-11.1-16.3-14.7-26.9c-3.7-10.7-5.5-23.3-5.5-37.9l-0.4-73.9
		c-0.2-11.9-0.4-22-0.5-30.4s-0.2-15.2-0.4-20.4c-0.1-5.2-0.2-9.2-0.3-12s-0.2-4.6-0.2-5.3v-0.7l-0.3-2.2h2.1c8,0,14.9,1.4,20.4,4.2
		c5.6,2.8,10,6.5,13.3,11.1s5.7,9.8,7.3,15.5c1.5,5.7,2.3,11.4,2.3,16.9v9.8h1.8c8.5,0,15.4-0.1,20.8-0.4c5.3-0.2,9.6-0.4,12.8-0.5
		s6.1-0.4,8.7-0.9l2.5-0.7v2.5c0,8.3-1.4,14.7-4.3,19.3c-2.4,4.9-5.9,8.5-10.7,10.9c-4,2.4-8.5,3.9-13.5,4.5s-10,1-14.9,1.3h-3.2v51
		c0,10.2,0.9,18.8,2.7,25.7c1.8,6.9,4.2,12.6,7.3,16.9c5.7,8.3,14,12.4,24.9,12.4c5.2,0,11-1,17.4-2.9l2.1-0.7l0.3,2.2
		c0.2,1.2,0.4,3,0.4,5.5c0,8.7-3.4,15.7-10.3,20.8c-6.6,4.9-14.7,7.3-24.2,7.3c-7.8,0-15.5-1.8-23.1-5.5
		C573.6,379,566.7,373.5,560.6,366.3z"/>
	<path fill="#FFFFFF" d="M765.2,310.2c-6.4,4.4-13.6,7.6-21.7,9.7c-8,2.1-16.5,3.1-25.2,3.1c-6.2,0-12.2-0.5-18.1-1.4
		c-5.9-1-11.6-2.3-17.1-4c0.5,3.4,1.1,6.7,1.8,10s1.7,6.5,2.8,9.6c3.1,7.5,7.7,13,13.9,16.4c4.7,2.7,10.4,4,17.1,4
		c0.7,0,1.4-0.1,1.9-0.2c0.6-0.1,1.2-0.2,2-0.2c3.3-0.3,6.6-0.8,9.9-1.6c3.3-0.9,6.6-1.9,9.9-3.1c3.3-1.2,6.6-2.3,9.9-3.1
		c3.3-0.8,6.5-1.3,9.6-1.3c3.8,0,7,0.9,9.6,2.5c2.8,1.5,5.3,4.2,7.5,8.4l0.7,1.1l-0.7,1.1c-7.1,7.8-15.4,14.1-25,18.9
		c-9.6,4.9-20.1,7.7-31.4,8.4h-6c-22,0-39.8-7.5-53.3-22.6s-20.5-34.8-21-59.4V304c0-12.6,1.6-24.1,4.8-34.6
		c3.2-10.4,7.9-19.5,14-27.3s13.5-14.1,22.2-18.9c8.6-4.9,18.3-7.9,29-9.1c1.4-0.2,2.8-0.4,4.3-0.4c1.4,0,3,0,4.6,0
		c5,0,10.2,0.5,15.6,1.5c5.4,1,10.8,2.5,16,4.7c5.4,2.2,10.4,5.1,14.9,8.7c4.5,3.6,8.3,8.1,11.4,13.5c4.5,7.5,6.9,16.3,7.1,26.2v1.8
		c0,9.5-1.9,17.4-5.7,23.7C776.9,300.6,771.8,306.1,765.2,310.2z M691.7,292.7c3.1,0.5,6.6,1,10.5,1.5s7.9,0.7,11.9,0.7
		c6.6,0,12.7-0.7,18.1-2.2c5.9-1.9,10.4-5,13.5-9.1c2.6-3.4,4-7.2,4.3-11.3c0.2-0.7,0.3-1.8,0.3-3.3c0-2.4-0.3-5-1.1-7.7
		c-0.7-2.7-2.1-5.3-4.3-8c-1.9-2.4-4.7-4.4-8.4-6s-8.6-2.5-14.7-2.7c-0.7,0-1.4,0.1-2.1,0.2c-0.7,0.1-1.4,0.2-2.1,0.2
		c-6.6,0.2-12.4,2.2-17.4,5.8c-4.5,3.4-7.9,7.4-10.3,12c-2.6,4.6-4.4,9.4-5.3,14.4c-1,5-1.4,9.5-1.4,13.7h1.1c0.9,0.5,2,0.8,3.2,0.9
		C688.6,291.9,690,292.2,691.7,292.7z"/>
	<path fill="#FFFFFF" d="M956,373.5l-1.4,1.4c-6.9,6.1-14.2,9.1-22,9.1c-3.3,0-6.6-0.6-9.9-1.6c-3.3-1.1-6.5-2.6-9.6-4.6
		c-3.1-1.9-5.9-4.1-8.5-6.6c-2.6-2.4-5.2-5-7.8-7.6c-9.2-10.7-17.5-20.3-24.9-28.8c-3.1-3.6-6.1-7.2-9-10.7c-3-3.5-5.6-6.7-8-9.5
		s-4.3-5.1-5.9-6.9c-1.5-1.8-2.4-2.8-2.7-3.1v23.7c0,2.9,0,6.6,0,11.1s0.1,9.3,0.2,14.6c0.1,5.2,0.3,10.4,0.7,15.7
		c0.4,5.2,0.8,10,1.2,14.4h-2.5c-7.8,0-14.4-1.4-19.9-4.2c-5.5-2.8-9.8-6.5-13.1-11.1c-3.3-4.8-5.6-10.1-6.9-15.6
		c-1.3-5.6-2-11.2-2-16.7v-157c0-5.6,0.6-11.2,2-16.7c1.3-5.6,3.6-10.8,6.9-15.7c3.3-4.6,7.7-8.3,13.1-11.1
		c5.4-2.8,12.1-4.2,19.9-4.2h2.5c-0.5,4.4-0.9,9.2-1.2,14.4s-0.6,10.4-0.7,15.7c-0.1,5.2-0.2,10.1-0.2,14.6s0,8.2,0,11.1v82.3
		l12.8-12.4c3.3-2.9,5.9-5.2,7.6-6.7c1.8-1.6,3.4-3.1,5-4.6c1.5-1.5,3.4-3.2,5.5-5.1c2.1-1.9,5.2-4.7,9.3-8.4
		c4.7-4.6,10.1-8.5,16-11.7s12-4.7,18.1-4.7c4.3,0,8.5,1,12.6,2.9c4.2,1.9,8.1,5,11.9,9.1l1.1,1.4l-60.4,59L956,373.5z"/>
	<g>
		<path fill="#FFFFFF" d="M10.7,408.2h5.1v37.2h-5.1C10.7,445.4,10.7,408.2,10.7,408.2z"/>
		<path fill="#FFFFFF" d="M29.6,415.8L29.6,415.8l-0.1,29.6h-5.1v-37.2h5.9l22.2,29.6h0.1v-29.6h5.1v37.2h-5.9L29.6,415.8z"/>
		<path fill="#FFFFFF" d="M71.2,415.8L71.2,415.8l-0.1,29.6H66v-37.2h6l22.2,29.6h0.1v-29.6h5.1v37.2h-5.9L71.2,415.8z"/>
		<path fill="#FFFFFF" d="M124.8,407.2c13.9,0,19.2,10,19.2,19.6s-5.3,19.6-19.2,19.6s-19.2-10-19.2-19.6S110.9,407.2,124.8,407.2z
			 M124.8,412c-7.9,0-14.1,4.9-14.1,14.8s6.2,14.8,14.1,14.8s14.1-4.9,14.1-14.8S132.7,412,124.8,412z"/>
		<path fill="#FFFFFF" d="M176.2,408.2h5.5l-15.1,37.2h-5.5l-15.4-37.2h5.8l12.4,31.5L176.2,408.2z"/>
		<path fill="#FFFFFF" d="M206.5,434.5h-16.9l-4.4,10.8h-5.5l15.6-37.2h5.9l15.6,37.2H211L206.5,434.5z M198,413.3l-6.5,16.5h13.1
			L198,413.3z"/>
		<path fill="#FFFFFF" d="M249.2,421.6c-0.8-5.2-4.5-9.5-11.8-9.5c-8.2,0-13.3,5.1-13.3,15.2c0,7,3.5,14.3,13.1,14.3
			c6,0,10.6-3.1,12.1-10.4h5.1c-0.8,8.2-7.4,15.2-17.3,15.2c-8.7,0-18.1-5.2-18.1-19.7c0-10.8,6.3-19.4,18.1-19.4
			c6.9,0,16.4,3.2,17.3,14.3H249.2z"/>
		<path fill="#FFFFFF" d="M261.1,408.2h5.1v37.2h-5.1V408.2z"/>
		<path fill="#FFFFFF" d="M291.9,407.2c13.9,0,19.2,10,19.2,19.6s-5.3,19.6-19.2,19.6c-13.9,0-19.2-10-19.2-19.6
			S278,407.2,291.9,407.2z M291.9,412c-7.9,0-14.1,4.9-14.1,14.8s6.2,14.8,14.1,14.8s14.1-4.9,14.1-14.8S299.8,412,291.9,412z
			 M293.2,398.4h6l-6.3,7.3H289L293.2,398.4z"/>
		<path fill="#FFFFFF" d="M322.5,415.8L322.5,415.8l-0.1,29.6h-5.1v-37.2h5.9l22.2,29.6h0.1v-29.6h5.1v37.2h-5.9L322.5,415.8z"/>
		<path fill="#FFFFFF" d="M425.3,408.2h19.2c7.4,0,10.6,3.5,10.6,9.3c0,4.5-2.2,6.8-5,7.9v0.1c4,1,6.5,3.8,6.5,9.2
			c0,5.3-3.4,10.7-10.9,10.7h-20.4L425.3,408.2L425.3,408.2z M444.4,423.5c3.8,0,5.6-2.2,5.6-5.2c0-3.4-1.7-5.4-5.9-5.4h-13.7v10.6
			H444.4z M444.3,440.6c5.7,0,7.2-3.1,7.2-6.3c0-2.9-1.5-5.9-6.8-5.9h-14.3v12.2L444.3,440.6L444.3,440.6z"/>
		<path fill="#FFFFFF" d="M463.8,408.2h5.1v37.2h-5.1V408.2z"/>
		<path fill="#FFFFFF" d="M477.3,408.2h27.8v4.8h-22.6v10.8h22v4.8h-22v12h23.1v4.8h-28.3V408.2z"/>
		<path fill="#FFFFFF" d="M517.3,415.8L517.3,415.8l-0.1,29.6H512v-37.2h5.9l22.2,29.6h0.1v-29.6h5.1v37.2h-5.9L517.3,415.8z"/>
		<path fill="#FFFFFF" d="M553.5,408.2h27.8v4.8h-22.6v10.8h22v4.8h-22v12h23.1v4.8h-28.3V408.2z"/>
		<path fill="#FFFFFF" d="M590.2,433.1c0.1,6.7,5.9,8.4,11.1,8.4c5.5,0,9.3-2.2,9.3-6.3c0-3.4-2.5-4.8-6.4-5.5l-7.8-1.4
			c-4.1-0.7-10.3-2.5-10.3-9.7c0-6.8,5-11.3,13.8-11.3c6.9,0,14.2,2.7,14.7,11.7h-5.1c-0.4-2.9-2-6.9-10.3-6.9c-3.8,0-8,1.7-8,6.1
			c0,2.3,1.4,4.1,5.7,4.9l8.5,1.6c2.7,0.5,10.4,1.9,10.4,9.5c0,9.5-7.9,12.2-14.9,12.2c-7.8,0-15.9-2.9-15.9-13.2h5.2V433.1z"/>
		<path fill="#FFFFFF" d="M630.1,413H617v-4.8h31.2v4.8h-13.1v32.4H630L630.1,413L630.1,413z"/>
		<path fill="#FFFFFF" d="M673.7,434.5h-16.9l-4.4,10.8h-5.5l15.6-37.2h5.9l15.6,37.2h-5.9L673.7,434.5z M665.2,413.3l-6.5,16.5
			h13.1L665.2,413.3z"/>
		<path fill="#FFFFFF" d="M688.1,408.2h21.4c6.9,0,9.4,5.2,9.4,9.9c0,4.5-2,7.9-5.8,9.2v0.1c3,0.5,4.8,3.5,5,7.9
			c0.3,6.9,0.5,8.7,1.6,10.1h-5.4c-0.8-1-0.8-2.6-1.1-7.1c-0.3-6.7-2.4-8.7-6.7-8.7h-13.4v15.8H688L688.1,408.2L688.1,408.2z
			 M707.6,424.8c5,0,6.2-3.3,6.2-5.9c0-3.6-2-5.9-6.1-5.9h-14.5v11.8H707.6z"/>
	</g>
</g>
</svg>
